<?xml version="1.0" encoding="UTF-8"?>
<svg id="Calque_2" data-name="Calque 2" xmlns="http://www.w3.org/2000/svg" viewBox="0 0 119.47 28.39">
  <defs>
    <style>
      .cls-1 {
        fill: #fff;
      }

      .cls-2, .cls-3 {
        fill: none;
        stroke: #fff;
        stroke-miterlimit: 10;
      }

      .cls-4 {
        fill: #1d1e1b;
      }

      .cls-3 {
        stroke-width: 2px;
      }
    </style>
  </defs>
  <g id="Calque_1-2" data-name="Calque 1">
    <rect class="cls-4" width="119.47" height="28.39"/>
    <path class="cls-3" d="M10.35,4.42c.74,1.82,2.03,5.61,1.87,10.6-.13,4.08-1.16,7.2-1.87,8.94"/>
    <g>
      <path class="cls-1" d="M23.74,15.39c0-3.72,2.64-6.34,6.41-6.34s6.31,2.54,6.31,6.34v5.83h-2.09v-2.59c-.79,1.92-2.54,2.9-4.61,2.9-3.1,0-6.02-2.23-6.02-6.14ZM34.2,15.3c0-2.4-1.63-4.13-4.08-4.13s-4.08,1.73-4.08,4.13,1.63,4.13,4.08,4.13,4.08-1.73,4.08-4.13Z"/>
      <path class="cls-1" d="M38.81,14.24c0-3.5,2.06-5.18,5.11-5.18s5.09,1.68,5.09,5.21v.12h-2.26v-.14c0-2.18-1.15-3.07-2.83-3.07s-2.83.89-2.83,3.07v6.98h-2.28v-6.98Z"/>
      <path class="cls-1" d="M50.57,14.36c0-3.62,2.11-5.3,4.9-5.3,1.82,0,3.36.82,4.18,2.35.82-1.54,2.33-2.35,4.18-2.35,2.78,0,4.9,1.68,4.9,5.3v6.86h-2.28v-6.86c0-2.21-1.18-3.19-2.83-3.19s-2.81,1.03-2.81,3.19v6.86h-2.28v-6.86c0-2.16-1.22-3.19-2.83-3.19s-2.83.98-2.83,3.19v6.86h-2.28v-6.86Z"/>
      <path class="cls-1" d="M70.58,15.3c0-3.6,2.64-6.24,6.38-6.24s6.38,2.64,6.38,6.24-2.64,6.24-6.38,6.24-6.38-2.64-6.38-6.24ZM81.05,15.3c0-2.4-1.63-4.13-4.08-4.13s-4.08,1.73-4.08,4.13,1.63,4.13,4.08,4.13,4.08-1.73,4.08-4.13Z"/>
      <path class="cls-1" d="M85.22,15.06c0-3.96,2.35-6,5.86-6s5.86,2.02,5.86,6v6.17h-2.28v-6.17c0-2.57-1.42-3.89-3.58-3.89s-3.58,1.32-3.58,3.89v6.17h-2.28v-6.17Z"/>
      <path class="cls-1" d="M99.38,22.64h2.28c.55,1.34,1.73,1.97,3.43,1.97,2.21,0,3.62-1.06,3.62-3.75v-1.7c-.74,1.46-2.18,2.28-3.96,2.28-2.95,0-5.47-1.85-5.47-6v-6.07h2.28v6.07c0,2.57,1.42,3.86,3.58,3.86s3.58-1.34,3.58-3.86v-6.07h2.28v11.45c0,4.13-2.62,5.78-5.9,5.78-2.74,0-5.02-1.27-5.71-3.96Z"/>
    </g>
    <path class="cls-3" d="M18.77,4.42c.74,1.82,2.03,5.61,1.87,10.6-.13,4.08-1.16,7.2-1.87,8.94"/>
    <path class="cls-2" d="M11.64,12.85c.71.43,2.68,1.51,5.33,1.32,1.92-.14,3.33-.87,4.04-1.32"/>
    <path class="cls-2" d="M11.64,14.02c.11.13,2.23,2.75,5.46,2.33,2.33-.3,3.65-1.98,3.91-2.33"/>
  </g>
</svg>