<svg width="18" height="18" viewBox="0 0 18 18" fill="none" xmlns="http://www.w3.org/2000/svg">
<g clip-path="url(#clip0_658_1641)">
<path d="M16.3406 10.1251C14.9603 12.1951 12.6236 14.4799 9.00001 16.8751C5.37639 14.4799 3.03976 12.1951 1.65939 10.1251H4.50001C4.61235 10.125 4.7221 10.0914 4.81514 10.0284C4.90817 9.96546 4.98022 9.87608 5.02201 9.77181L6.66114 5.67456L8.45889 11.9667C8.49103 12.0795 8.55766 12.1795 8.64944 12.2526C8.74122 12.3257 8.85357 12.3683 8.97074 12.3743C9.08792 12.3804 9.20406 12.3497 9.30291 12.2865C9.40176 12.2233 9.47837 12.1307 9.52201 12.0218L11.3749 7.38906L13.032 9.87531C13.0835 9.95222 13.1531 10.0153 13.2347 10.0588C13.3164 10.1024 13.4075 10.1251 13.5 10.1251H16.3406Z" fill="#285F6E"/>
<path d="M17.01 8.99998C20.7303 1.88997 13.0387 -2.25002 9.19909 1.28585C9.13159 1.3481 9.06559 1.41223 9.00109 1.47822C8.93772 1.41181 8.87166 1.34801 8.80309 1.28698C4.96121 -2.25003 -2.72929 1.88997 0.989964 8.99998H4.12084L6.22909 3.72822C6.27273 3.61931 6.34934 3.52677 6.44819 3.46355C6.54704 3.40034 6.66318 3.36962 6.78036 3.3757C6.89753 3.38177 7.00988 3.42434 7.10166 3.49744C7.19344 3.57054 7.26007 3.6705 7.29221 3.78335L9.08884 10.0755L10.728 5.97823C10.7661 5.88318 10.8295 5.80036 10.9113 5.7387C10.9931 5.67704 11.0902 5.63889 11.1921 5.62835C11.294 5.61782 11.3968 5.6353 11.4895 5.67892C11.5821 5.72253 11.6611 5.79063 11.718 5.87585L13.8015 8.99998H17.01Z" fill="#285F6E"/>
</g>
<defs>
<clipPath id="clip0_658_1641">
<rect width="18" height="18" fill="white" transform="matrix(-1 0 0 1 18 0)"/>
</clipPath>
</defs>
</svg>
