<svg width="100" height="100" viewBox="0 0 100 100" fill="none" xmlns="http://www.w3.org/2000/svg">
<path d="M88.2008 33.334C81.7695 18.6173 67.0841 8.33398 50.0008 8.33398C32.9174 8.33398 18.2299 18.6173 11.8008 33.334" stroke="#285F6E" stroke-opacity="0.75" stroke-width="2" stroke-linecap="round" stroke-linejoin="round"/>
<path d="M50 29.168C46.0366 33.043 42.8889 37.6721 40.7421 42.7825C38.5953 47.8929 37.493 53.3812 37.5 58.9242C37.5 59.9659 37.5382 60.9992 37.6146 62.0242C41.5437 65.8956 44.6625 70.5107 46.789 75.6003C48.9155 80.6899 50.007 86.152 50 91.668C49.9927 86.1517 51.0842 80.6892 53.2107 75.5992C55.3371 70.5092 58.4561 65.8938 62.3854 62.0221C62.4618 60.9999 62.5 59.9673 62.5 58.9242C62.5071 53.3812 61.4048 47.8929 59.258 42.7825C57.1112 37.6721 53.9634 33.043 50 29.168Z" fill="#285F6E" fill-opacity="0.75" stroke="#285F6E" stroke-opacity="0.75" stroke-width="2" stroke-linecap="round" stroke-linejoin="round"/>
<path d="M8.33398 50C8.33398 73.0125 26.9882 91.6667 50.0006 91.6667C50.0079 86.1504 48.9165 80.6879 46.79 75.5979C44.6635 70.508 41.5446 65.8925 37.6152 62.0209C29.8236 54.3068 19.2983 49.9858 8.33398 50Z" fill="#285F6E" fill-opacity="0.75" stroke="#285F6E" stroke-opacity="0.75" stroke-width="2" stroke-linecap="round" stroke-linejoin="round"/>
<path d="M91.6667 50C91.6667 73.0125 73.0125 91.6667 50 91.6667C49.9928 86.1504 51.0842 80.6879 53.2107 75.5979C55.3372 70.508 58.4561 65.8925 62.3855 62.0209C70.177 54.3068 80.7024 49.9858 91.6667 50Z" fill="#285F6E" fill-opacity="0.75" stroke="#285F6E" stroke-opacity="0.75" stroke-width="2" stroke-linecap="round" stroke-linejoin="round"/>
</svg>
